<svg version="1" xmlns="http://www.w3.org/2000/svg" width="3756" height="3756" viewBox="0 0 2817.000000 2817.000000"><path d="M1379 658.6c-1.6.7-3.3 2-3.6 2.9-.3.8-1 1.3-1.4 1-1.2-.7-4.3 8.1-8 22.5-2.7 10.7-3.1 11.4-6.5 11.8-1.7.2-2.5 0-2-.7.3-.6-.1-1.1-1-1.1s-1.4-.4-1.1-.9c.3-.4-.3-1.6-1.4-2.6-1.1-1-2-1.5-2-1.1 0 .4-1 .1-2.2-.6-1.3-.7-2.5-1.3-2.8-1.4-1.3-.3-4.9-1.7-8.7-3.4-3.1-1.4-4.3-1.6-4.7-.7-.2.7-.5.5-.5-.5-.1-1-.8-1.5-1.8-1.4-1 .2-2.1-.1-2.4-.6-.8-1.3-4.9-1.9-4.9-.7 0 .6-.4.8-.8.5-.5-.3-1.5.5-2.3 1.6-.8 1.2-2.1 2.9-2.9 3.7-1 1.1-1.6 3.9-1.7 8.4-.2 7.5.1 7.9 9.7 10.6 2.5.8 5.2 1.6 6 1.9 4.4 1.5 8.4 2.4 13 2.9 3.7.5 4.3.3 3.3-.9-1-1.1-.6-1.3 2-1.3 1.8.1 4.2.7 5.3 1.3 1.2.6 2.4.8 2.8.4 1.1-1 .3 2.6-4.9 21.8-5.1 19-5.2 19.3-6.6 18.4-.6-.3-.5-1.2.3-2.2 1-1.2.7-1.2-1.4.2-2.5 1.6-2.8 1.7-2.8.2 0-1-.9-1.6-2.2-1.7-1.3 0-1.7-.3-1-.6 1-.4 1-.8 0-2.1-.7-.9-.8-1.3-.3-1 .6.4 1.1-.1 1.1-1.1s-.6-1.8-1.3-1.8c-.7 0-.9.5-.6 1.1.3.6.2.7-.2.3-1.2-1-1.5-3.8-.4-3.2.5.4.6-.1.3-.9-.3-.9-1-1.4-1.4-1.1-.5.3-.6-.5-.2-1.7.4-1.6.2-1.9-.9-1.3-1.2.8-1.2.6 0-.9s1.2-1.7 0-1.4c-.8.2-1.3-.3-1.1-1.1.2-1-.6-1.2-2.7-.9-2.2.3-2.8.1-2.1-.7.6-.8.6-1.2-.3-1.2-.6 0-2.1-.4-3.1-.9-1.4-.5-1.7-.4-1.1.5.6 1 .3 1.1-1.4.1-1.2-.6-1.9-1.4-1.7-1.9.3-.4-.8-.5-2.5-.3-1.6.2-2.9 0-2.9-.4 0-1.7-3.8-3.5-4.6-2.2-.4.6-.3.8.3.5.6-.4 1.6 0 2.3.8 1 1.2.7 1.3-1.4.9-2.1-.3-2.4-.1-1.9 1.2s.3 1.5-.7.9-1.2-.3-.8 1.3c.4 1.6.2 1.9-1 1.5-1.1-.5-1.4-.2-.9 1 .4 1 .2 1.6-.6 1.4-.7-.1-1.1.4-.9 1.2.2.9-.3 1.1-1.4.7-1.5-.6-1.5-.4-.3 1.1.7 1 .9 1.5.4 1-1.4-1.2-4.7 2.4-3.4 3.9.7.9.6 1.4-.2 2-.8.4-.9.3-.5-.4s.3-1.2-.2-1.2-1.4 1.2-2 2.6c-1 2-1 2.4 0 1.8.9-.6.9-.3-.1.9-.9 1.2-1 1.7-.2 1.7.7 0 1 .4.6.9-.3.5-.1 1.2.3 1.5.5.3.9 1.6.8 2.8-.1 1.3.2 2.6.7 2.9.5.4 1 2.3 1.2 4.4.2 3.7 3.3 7.4 6.3 7.5 1.2 0 2.2.4 7.9 3.4 1.8.9 3.4 1.6 3.5 1.6.2-.1 1.1.2 2 .5 2.3.9 5.1-.2 4.3-1.6-.4-.6.2-1.3 1.4-1.6 1.1-.3 1.8-1 1.4-1.6-.4-.7 0-.8 1.2-.3 1.5.5 1.6.4.6-.8-1-1.2-.8-1.6.8-2.1 1.2-.3 2.1-1.1 2.1-1.6 0-.6-.6-.7-1.2-.3-.7.4-.9.3-.5-.1 1.1-1.3 3.7-1.5 3.7-.3 0 .6.6.5 1.5-.2 1.2-1 1.5-1 1.5.3 0 1 .6 1.4 1.4 1.1.8-.3 1.7 0 2.1.5.3.6 1 .9 1.5.6 1-.6.8 0-4.2 18.9-2.2 8.2-4.6 15.6-5.4 16.4-.8.7-1.4.9-1.4.4 0-.6-.7-1.3-1.6-1.6-1.3-.5-1.4-.4-.6.7.9 1 .8 1.4-.3 1.4-.8 0-1.5-.4-1.5-.9s-.4-.6-1-.3c-.5.3-1-.1-1-.9 0-.9-.7-1.6-1.5-1.6s-1.4-.3-1.4-.8c.3-2-.3-3.2-1.7-3.2-.8 0-1.2-.5-.9-1 .3-.6-.2-1-1.2-1-1.5 0-1.6-.2-.3-1s1.2-1-.4-1c-1.1 0-1.7-.3-1.3-.6.3-.4 0-1.3-.8-2-1.6-1.7-22.1-2-24.5-.4-1.3.8-1.3 1 0 1 .9 0 .6.6-.9 1.6-1.6 1.1-2 1.9-1.2 2.7.7.7.5 1.4-.7 2.3-1.1.9-1.3 1.3-.4 1.4.7 0 1 .5.7 1-.4.6-1.1.7-1.7.4-.6-.4-.5.3.2 1.6.8 1.5.8 2 .1 1.6-.7-.5-1.1.5-1.2 2.6 0 1.8-.2 4.1-.4 5-.2 1 .1 1.8.6 1.8.6 0 .8.4.4.9-.3.5.2 1.6 1 2.5.9.8 1.6 1.7 1.6 1.8-.1 1.4 1.3 4.8 1.8 4.8.4 0 .8.7.8 1.4 0 2.3 4.6 8.5 5.8 7.8 1.5-1 5.8-.9 7.2.1.7.5 1.8.5 2.5.1 1-.6 6.2-1 7.1-.4 1 .7 3.6.6 3.1-.1-.3-.5 0-.9.6-.9.7 0 1-.6.7-1.3-.2-.6.3-1.8 1.2-2.5 1.3-1.1 1.3-1.2.1-.7-.8.4-.5-.2.7-1.2 1.5-1.2 2.1-2.7 1.9-4.4-.2-1.6.2-2.6 1-2.6.7 0 1 .5.7 1.1-.4.6-.1.6.8-.1s2-.8 2.8-.3c1.5.9 1.6.3-3.9 20.5-1.2 4.4-2.3 8.8-2.5 9.8-.2.9-1.8 6.8-3.6 13-1.7 6.1-3.2 12.1-3.3 13.2-.3 3 2.1 6.1 7 9.2 2.4 1.5 4.4 3.1 4.4 3.5 0 .5 1 .8 2.3.8 1.2 0 2.8.9 3.5 2 .7 1.1 1.9 2 2.7 2 .8 0 1.5.3 1.5.7.1.5 2.7 2.8 5.9 5.3 6.6 5.1 12.6 12.8 16.7 21.5 1.6 3.3 3.1 6.2 3.4 6.5 1.4 1.3 1.7 16.5.6 35-.4 6.9-.8 15.6-1 19.5-.2 3.8-.7 13.3-1.1 21-.5 7.7-.8 16.7-.9 20 0 3.3-.5 6.3-1.1 6.7-.6.5-.5.8.3.8.7 0 1 .5.6 1.1-.4.7-.7 4.4-.8 8.3-.1 3.9-.5 7.7-.9 8.3-.5.8-.3 1.3.4 1.3 1 0 1 .3.1 1.2-.7.7-.8 1.7-.2 2.9.6 1.1.6 2 .1 2.3-1.3.9-.6 4.2.9 3.8.6-.1.9.2.5.8-.3.6-1.1.8-1.6.5-.5-.4-.9 2.1-1 5.7-.1 7.8-.5 15.1-.8 15.8-.9 1.9-.6 16.8.3 17.9.8 1.1.8 1.3-.1.7-1-.5-1.3.5-1.4 4.1-.1 2.6-.2 5.5-.3 6.3-.1.8.2 2 .7 2.7.4.6.3 1.4-.2 1.7-.6.4-.7 1.4-.4 2.3.5 1.2.3 1.4-.8.8-1.1-.7-1.2-.6-.2.6 1.7 2.1 1.7 2.2.4 4.6-.9 1.7-.9 2.3 0 2.3.8 0 .8.4-.1 1.5s-.9 1.5-.1 1.5.9.5.1 1.9c-.7 1.3-.7 2.2 0 2.6.7.4.7 1.3 0 2.6-.6 1-.7 1.9-.3 1.9.4 0 .1.5-.7 1-1.1.7-1.1 1-.2 1 .7 0 1 .4.7 1-.3.5-.7 2.8-.8 5-.2 2.8.2 4.1 1.3 4.4 1.2.3 1.1.4-.2.5-1.9.1-2.6 4.1-.8 4.1.6 0 1 .4 1 1 0 .5-.3.9-.7.9-2.2-.4-2.4.3-.8 2.1 1.8 2 1.8 2.1-.1 1.4-1.6-.7-1.7-.5-.7.7s1 1.8.1 2.7c-.9.9-.9 1.2.1 1.2.7 0 .9.5.6 1-.4.6-.8 2.4-1 4.1-.3 2.1-.1 2.8.8 2.2.9-.5.9-.3.1.8-.5.8-1.2 4.3-1.3 7.9-.6 11.6-.8 15.5-1.1 16-.5 1.1-.5 3.7.2 6.2.3 1.5.2 3-.3 3.3-.5.4-.9 1.1-.9 1.6 0 .6.6.7 1.3.3.9-.6.9-.4.1.7-.6.8-1.1 3.1-1 5.2 0 2-.3 3.7-.8 3.7s-.4.6.3 1.3c.8 1 .7 1.7-.1 2.5-.9.9-.9 1.2.1 1.2s1.1.3.2 1.3c-.8 1-.7 1.7.2 2.7.7.8.8 1 .1.7-.8-.5-1.1.5-1 3.1.1 2-.1 4.7-.5 5.9-.5 1.4-.4 2.3.4 2.7.8.3.9.7.2 1.3-1.4 1.2-1.7 4-.5 4.8.8.5.8 1.1-.1 2.1-.6.7-.9 2.1-.5 2.9.3.8.2 1.5-.2 1.5s-.7 3.2-.6 7.1c0 3.8-.4 7.3-.8 7.5-.4.3-.4 1.4.2 2.4.7 1.2.7 2.1 0 2.5-.5.3-1 1.6-1 2.8.1 1.2-.2 5.1-.4 8.7-.5 6.1-.8 9.6-2.1 21.3-.4 4-4.1 13.9-11 29.2-.8 1.7-2.3 5.3-3.5 8-2.8 6.6-4.6 10.7-6.7 15.2-1 2.1-1.8 4-1.9 4.3 0 .3-.8 2.2-1.7 4.2-1 2.1-1.7 4.2-1.7 4.7s-.4 1.1-1 1.3c-.5.1-1.1 1.2-1.3 2.3-.4 2.2-1.1 4-3.9 10.2-2.3 5.3-4.1 9.6-4.3 10.5-.2.5-.3.9-.5 1-.1.2-.3 1.2-.5 2.3-.2 1-.8 2.8-1.3 4-1.2 2.5-3.6 8.7-3.9 10-.1.5-1.8 5.2-3.7 10.4-2 5.1-3.6 10-3.6 10.7 0 .8-.5 1.4-1.1 1.4-.5 0-.8.4-.4.9.3.5.1 1.2-.5 1.6-.5.3-1 1.6-1 2.9 0 1.2-.4 2.6-1 3.2-.5.5-1.1 1.8-1.3 2.9-.1 1.1-.5 2.4-.8 3-.6.9-3.2 8.4-3.4 9.5 0 .3-.6 1.5-1.3 2.6-.6 1.2-.8 2.4-.4 2.8.3.4.1 1.1-.6 1.5-.7.4-1.4 1.8-1.5 2.9-.1 1.2-.5 2.2-1 2.2-.4 0-.6.4-.2.9.3.5.1 1.2-.5 1.6-.6.4-.8 1-.5 1.5.3.5.1 1.1-.5 1.5-.6.4-.8 1.1-.5 1.6.4.5.2.9-.4.9-.6 0-.8.7-.5 1.5.4.8.1 1.5-.7 1.5-.7 0-.9.3-.6.7.4.3.2 1.2-.4 2-.6.7-.9 1.3-.5 1.3s0 1.3-.9 3c-.8 1.6-1.6 4-1.7 5.4-.1 1.3-.6 2.2-1 2-.4-.3-.9.2-.9 1-.1 1.6-.4 2.8-.9 4.3-.1.5-.2 1.1-.1 1.5 0 .5-.3.8-.9.8-.5 0-1 .9-1 2 0 1.2-.7 3.4-1.5 5-.9 1.7-1.3 3-.9 3s.2.6-.3 1.2c-.6.7-1.6 3.1-2.3 5.3-.7 2.2-1.8 4.6-2.4 5.4-.9 1.2-.8 1.3.4.6 1.3-.8 1.3-.7.1.9-.8 1-1.5 2.7-1.6 3.8-.1 1.1-.8 2.4-1.6 2.9s-1.1.9-.7.9c.4 0-.6 3.7-2.3 8.2-1.7 4.6-3.1 8.7-3.3 9.3-.2.5-.8 2.3-1.5 3.8-.6 1.6-.9 3.2-.6 3.7.3.5.1 1-.5 1.2-.6.2-1.2 1.2-1.4 2.4-.2 1.1-1.1 3.7-2 5.8-.9 2.1-1.4 4.2-1.1 4.6.3.5.1 1-.3 1.2-.5.1-2.3 4.6-4.1 9.8-1.9 5.2-3.8 10.1-4.3 10.7-.6.7-.8 1.3-.5 1.3.3 0-.1 1.7-1 3.7-.8 2.1-1.5 4-1.5 4.3-.1.7-.3 1.4-3.4 9.5-1.4 3.8-2.7 7.7-2.9 8.5-.2.8-.4 1.7-.6 2-.1.3-.3.9-.4 1.5 0 .5-.9 2.5-1.8 4.2-1 1.8-1.7 3.6-1.7 4 0 1.2-1 4.6-2 6.8-1.4 3.1-4 10.7-4.6 13.5-.3 1.3-1 2.7-1.5 3.1-.6.3-1.1 1-1 1.5 0 1.6-1.2 5.9-2 6.9-.4.6-1 2.2-1.3 3.7-.2 1.4-.9 3.6-1.6 4.7-.6 1.2-.8 2.1-.4 2.1.3 0 .2.6-.3 1.2-1.1 1.4-5.4 13.3-5.8 15.8-.1.8-.8 2.8-1.5 4.5-2.8 6.5-3.8 9.1-4.5 11.5-.4 1.4-3.2 9.4-6.2 17.9-3 8.5-5.6 16-5.7 16.7-.1.6-.8 1.9-1.5 2.8-.7.9-1.1 1.6-.8 1.6.3 0-.8 3.5-2.5 7.7-1.6 4.3-3.1 8.5-3.3 9.3-.2.8-3.6 10.3-7.5 21-4 10.7-7.6 20.9-8.1 22.7-.6 1.8-1.6 4.5-2.4 6-.8 1.5-1.5 3.2-1.5 3.7 0 .6-2.3 7.3-5.1 15-2.8 7.8-5.2 14.5-5.4 15.1-.1.5-.7 2.1-1.2 3.5-.6 1.4-3 7.9-5.3 14.5s-4.6 12.9-5.1 14c-3.3 8.3-6.2 18.5-6.1 22.2 0 2.8 1 5.9 2.7 8.8l2.6 4.5h87.8l15.3-15.7c26.2-27 117.9-118.6 126.3-126.3 10.2-9.3 19.4-17 20.4-17 .8 0 19.1 14.9 22.1 18 .8.8 4.4 4 8 7 3.6 3 6.7 5.7 7 6 .3.3 5.9 5.2 12.5 10.9 6.6 5.8 14.3 12.5 17.1 15 2.7 2.5 7.9 7.1 11.5 10.2 3.5 3.1 12.9 11.4 20.9 18.5 8 7 17.4 15.3 20.9 18.3 3.5 3.1 7.1 6.3 8 7.2 1.7 1.6 24 21.3 35 30.9 3.5 3 6.8 6 7.5 6.6.6.5 3.5 3.1 6.4 5.7l5.3 4.7h76.8l2-2.6c1.1-1.5 1.8-3 1.5-3.5-.3-.5 0-.9.6-.9 1.4 0 .7-13.8-.9-16.7-.5-1-3.3-8.6-6.1-16.8-2.9-8.3-8.3-23.8-12.2-34.5-3.8-10.7-8.3-23.3-9.9-28-1.7-4.7-3.9-10.8-4.9-13.5-1-2.8-3.3-9.1-5-14-6-17-8.1-23-9.2-25.5-.6-1.4-1.2-3-1.3-3.5-.8-3.8-5-14.5-5.7-14.5-.5 0-.7-.4-.3-.9.5-.9-1-5.8-3.6-11.6-.4-1.1-1.7-4.7-2.8-8-1.8-5.4-6.2-17.7-7.8-21.5-.3-.8-.7-2.1-.9-2.8-.1-.8-.6-2.1-1-3-.4-.9-.8-2.2-.9-2.7-.2-.6-1.2-3.4-2.4-6.3-1.1-2.8-1.8-5.2-1.5-5.2.4 0 .2-.6-.3-1.3-.6-.6-2.5-5.3-4.2-10.2-1.8-5-3.6-9.9-4.1-11-.5-1.1-2.3-5.8-4-10.5-4.7-12.5-7.1-19.1-8.5-22.5-.7-1.7-2.5-6.4-4-10.5-1.4-4.1-3-8.4-3.5-9.5-.5-1.1-4.3-11.2-8.5-22.5-4.3-11.3-8.3-21.9-9-23.5-.7-1.7-2.3-5.7-3.5-9-1.2-3.3-2.6-6.9-3-8-.5-1.1-4.6-11.7-9-23.5-4.5-11.8-12.9-33.6-18.6-48.3-5.7-14.8-10.4-27.1-10.4-27.4 0-.3-.7-1.9-1.5-3.6-.8-1.8-2.8-6.8-4.5-11.2-1.7-4.4-3.5-8.9-3.9-10-.5-1.1-6.9-17.1-14.1-35.5-16.1-40.7-26.5-65.1-30.1-70.8-1.7-2.6-2.6-5.3-2.4-7.2.1-1.7-.2-3-.9-3-.6 0-.4-.5.4-1s1.1-1 .5-1c-.5 0-1-2.2-.9-5 .1-2.7-.3-5-.8-5s-.5-.7 0-1.6c.5-.9.6-3.2.2-5.3-.3-2-.6-5.1-.5-6.9.1-2.5-.3-3.1-1.4-2.7-1.1.4-1 0 .4-1.5 1-1.1 1.4-2 .9-2-.5 0-.9-2.1-.9-4.8 0-2.6-.3-5.9-.6-7.4-.4-1.5-.3-3 .2-3.4.5-.3.6-1 .2-1.6-.3-.7-.7-4.1-.8-7.7-.5-18.5-.8-23-1.5-22.6-.8.5-.6-3.2.3-4.1.4-.4.2-1.3-.4-2.1-.9-1-.8-1.3 0-1.3.7 0 .9-.5.6-1-.4-.6-.8-6.3-1-12.8-.2-6.4-.7-17.8-1.1-25.2-1.1-23.4-1.2-25.1-1.8-43.4-.4-9.9-.9-22-1.2-27-.3-5-.7-13-.7-17.8-.1-4.9-.5-8.8-.9-8.8s-.3-1.3.2-2.9c.4-1.6.6-3.2.3-3.5-.3-.3-.7-5.4-.8-11.3-.2-5.9-.4-14.5-.5-19.1-.2-5.2-.7-8.2-1.4-8.2-.6 0-.6-.4.2-.9.8-.4 1.4-1.2 1.4-1.6 0-.4-.6-1.2-1.4-1.6-1-.7-1-.9.2-.9 1.3 0 1.3-.1 0-1-.8-.5-1-1-.5-1 .6 0 1.1-.9 1.1-2s-.3-2-.6-2-.6-5.1-.6-11.3c-.3-22.6-.7-28.2-1.8-29.6-.8-1.1-.8-1.3.2-.7.6.4 1.2.2 1.2-.3 0-.6-.6-1.1-1.2-1.1-1 0-.9-.3.1-.9.9-.6 1-1.1.2-1.5-.7-.5-.8-1.3-.2-2.4.5-.9.6-2.5.2-3.6-.4-1.2-.6-4.5-.5-7.3.1-3.3-.2-5-.8-4.7-.6.4-.6-.1.1-1.3.7-1.4.7-2.3-.1-3.1-.9-.9-.9-1.2 0-1.2.7 0 .9-.8.4-2.3-1.2-3.6-.7-25 .6-25.5.7-.2 1.2-1 1.2-1.9 0-2.8 7.1-12.2 13.8-18.3 3.7-3.4 13.3-10.6 21.4-16.1 10.5-7.2 14.9-10.8 15.6-12.7 1.1-3.5-.5-9-3-9.8-1-.3-1.8-1.4-1.8-2.4s-.6-2.1-1.2-2.3c-1-.4-1-.6 0-.6 1-.1 1-.4 0-1.5-.7-.8-1.5-1.3-1.8-1.1-.3.2-.6-1.8-.7-4.3-.1-2.5-.6-4.8-1-5.1-.4-.3-.9-1.1-1-1.6 0-.6-.3-2.4-.6-4.1-.3-1.7-.9-4-1.4-5-.5-1.1-.9-2.6-.8-3.4.1-.8-.3-2-.8-2.7-.5-.7-.6-1.7-.2-2.3.3-.5.2-1-.3-1-.6 0-.9-1.3-.8-3 .1-1.6-.3-3.1-.8-3.4-.7-.2-.6-.9.3-1.7.8-.8 1.1-.9.7-.2-.7 1.2 5.4 1 7.6-.3 1-.6 1-.5.1.7-.6.8-.8 2-.4 2.7.9 1.4 8.5 2.2 10.3 1 .7-.3 1.7-.4 2.2 0 2 1.2 16.6.3 17.9-1.1 1.8-1.9 3.7-5 4.3-7 .4-.9 1-1.7 1.5-1.7 1.3 0 1.1-4.4-.2-5.7-.5-.5-1.2-2.1-1.4-3.4-.6-4.5-1.7-6.9-2.7-6.2-.6.3-5.2.8-10.2 1-13.5.6-15 .7-16.3 1.6-.6.4-1.4.3-1.8-.3-.4-.6-1.1-.8-1.6-.4-.5.3-.6 1-.3 1.6.4.6.2.8-.4.4-.6-.3-1.3-.2-1.7.4-.3.5-.1 1 .6 1 2.4 0 .2 1-3.7 1.6-2.1.3-4.2.8-4.6 1.1-.5.2-.8 0-.8-.5 0-.6-.8-.8-1.9-.5-1.3.3-2-.2-2.4-1.9-.3-1.3-2-7.5-3.7-13.8-1.7-6.3-3.3-12.3-3.5-13.3-.2-1-.7-2.8-1.1-3.9-.7-2.5 1-3.8 4.3-3.2 1.2.2 2.3 0 2.3-.6s-.5-.8-1.2-.4c-.6.4-.8.3-.5-.4.4-.5 1.5-.9 2.5-.8.9.2 2-.2 2.4-.8.5-.6.8-.1.8 1.2s.4 2.1.8 1.8c.4-.2 1.4.9 2.1 2.5.7 1.6 1.7 2.7 2.1 2.4.5-.3 1.7.6 2.6 2 1.3 2 1.9 2.3 3 1.4.8-.6 1.4-.8 1.4-.4s.7.2 1.5-.5c.9-.7 1.8-1 2.1-.7.4.3 1.3 0 2.1-.8s2.3-1.5 3.4-1.5c1 0 1.9-.5 1.9-1.1 0-.5.4-.8.9-.4.5.3 1.2.1 1.6-.5.3-.5 1.5-1 2.6-1 1 0 2-.7 2-1.5.2-1.8.4-2.5 1.2-4.5.6-1.4 1.5-5.2 2.2-9.5.2-1.1.4-2 .5-2 .1 0 .3-.9.5-2 .3-1.1-.3-2.6-1.2-3.3-.9-.6-1.2-1.2-.5-1.2s.6-.7-.5-1.9c-.9-1.1-2-1.8-2.5-1.5-.4.3-.5-.2-.2-1 .3-.9.1-1.6-.5-1.6s-1.1-.5-1.1-1c0-.6-1-2.1-2.3-3.3-1.3-1.3-1.5-1.6-.3-.7 1.9 1.5 1.9 1.5 0-1.1-1-1.5-2.2-2.5-2.6-2.2-.5.2-.8-.6-.8-1.9 0-1.8-.2-2-1-.8-.6 1-1 1.1-1 .2 0-.6-.9-1.2-2-1.2s-2 .5-2 1.2c0 .9-.3.9-1.2 0-1-1-1.6-.8-3.1 1-1 1.3-1.6 1.7-1.2 1 .3-.6.1-1.2-.4-1.2-.6 0-1.1.8-1.2 1.7 0 1.2-.2 1.3-.6.5-.4-1-.8-1-2.1 0-1.2 1-1.4 1-.8 0 .4-.6.3-1.2-.2-1.2-.6 0-1.3.7-1.6 1.6-.3.8-1 1.2-1.6.9-.5-.3-1 0-1 .7 0 1-.3.9-1.1-.2-.8-1.2-1-.9-.6 1.3.4 2.4.2 2.6-1.2 1.5-.9-.7-1.3-.8-.9-.4.4.5.2 1.6-.5 2.4-1 1.3-.9 1.4.3.7s1.3-.6.3.6-1 1.8 0 2.8c.9 1 .9 1.1-.4.6-1-.4-2-.1-2.5.6-.5.8-.3 1 .7.4.8-.5.5.2-.6 1.5s-1.5 2-.8 1.7c.7-.5 1-.1.9 1-.2.9-.8 1.9-1.4 2.1-.7.2-.9.9-.5 1.5.4.7-.1.6-1-.2-1.5-1.2-1.7-1.2-1.1.2.4 1.2.1 1.5-1.6 1.2-1.8-.4-2-.2-.9 1.1s.9 1.4-1.2.4c-1.8-.8-2.8-2.5-3.8-6.3-.7-2.9-1.3-5.8-1.4-6.5 0-.6-.4-1.2-.9-1.2s-.7-.4-.4-.8c.2-.4-.4-3.9-1.5-7.7-5.6-19.4-5.8-20.5-4-19.6 1 .6 2.4.5 3.4 0 .9-.6 2.3-.7 3-.3.8.5.7.2-.2-.9-2.3-2.8-.6-1.9 3.2 1.8 2 1.9 3.3 3.5 3 3.5-.3 0 .9 1.5 2.7 3.2 2.1 2.2 3.4 2.9 3.7 2 .3-.6.9-1.2 1.5-1.2s4.8-1.8 9.4-4.1c5.4-2.6 8.4-4.6 8.5-5.7 0-.9.2-2.6.5-3.7 2.5-12.5 3-16.5 2.2-16.5-.5 0-.6-.5-.3-1 .3-.6.3-1-.2-1-.4 0-1.9-1-3.3-2.1s-1.9-1.8-1.2-1.4c.6.3 1.2.2 1.2-.3s-1-1.4-2.2-2c-1.3-.6-1.7-1.1-1-1.1 1-.1 1-.4 0-1.5-.7-.8-1.7-1.1-2.2-.8-.5.3-.7-.2-.3-1.1.3-1 .2-1.7-.4-1.7-.6 0-.7-.6-.3-1.3.5-.8.2-.7-.9.2-1.5 1.2-1.7 1.2-1.1-.3.4-1 0-1.8-1.2-2.3-1-.4-1.9-.2-2.2.5-.6 1.8-2 1.4-2.5-.6-.4-1.5-.5-1.5-.6.2-.1 1.2-.6 1.6-1.7 1.2-.8-.3-1.2-.2-.9.4.4.6-.5 1-2 1-1.4 0-2.4.4-2.1.8.3.4-.8.7-2.5.6-1.6-.1-3.2.3-3.6.9-.4.6-.1.7.7.2.9-.5 1.1-.4.6.3-.5.9-1.3.9-2.6.2-1.6-.9-1.8-.7-1.5 1.1.3 1.4 0 1.9-.9 1.6-.9-.4-1.1.2-.8 2 .3 1.8.1 2.4-.7 1.9-1.4-.9-1 1.6.4 2.6.6.4.2.8-.9.8-1.3 0-1.7.5-1.3 2 .3 1.2 0 2-.8 2-.9 0-1.1.8-.7 2.2.4 1.7.2 2-1.1 1.5-1.2-.4-1.5-.1-1.2 1.6.4 2.1.4 2.1-1 .3-1.5-1.9-1.5-1.9-1.5-.1 0 3.8-1.9-.3-6.4-13.8-5.1-15.5-6.3-17.9-10.1-22.2-1.5-1.7-2.4-2.3-1.9-1.5.5 1.1.2 1-1.3-.3-2.3-2-3.8-2.3-2.7-.5.6 1 .4 1-.7.2-1.8-1.4-4-1.4-7.9.2zm-74 78.8c0 .2-.7.7-1.6 1-.8.3-1.2.2-.9-.4.6-1 2.5-1.4 2.5-.6zm138.4 31.2c.3.8.2 1.2-.4.9-.6-.3-1-1-1-1.6 0-1.4.7-1.1 1.4.7zm-55.8 624.6c1.5 4.6 8.1 22.5 14.6 39.8 6.6 17.3 13.5 35.8 15.5 41 1.9 5.2 7 18.7 11.3 30 4.3 11.3 12.6 33.3 18.4 49 5.9 15.7 11.2 29.6 11.7 30.9.6 1.3 5 13.3 10 26.5 4.9 13.3 9.5 25.2 10 26.6.6 1.4 3.3 8.4 5.9 15.6 5.8 15.6 9.8 26.2 11.1 28.9.5 1.1 1.5 3.9 2.3 6.2l1.5 4.3-31.9-.3c-20.8-.1-32 .1-32 .8 0 .7-.3.7-.8 0-1-1.4-8.4-1.7-7.6-.3.5.7.2.8-.6.3-1.8-1.1-13-1.3-13.6-.3-.3.5-1.1.5-1.7.1-2.1-1.3-4.9-1.4-4.1-.1.5.7.3.8-.7.2-2.1-1.3-8-1.4-7.2 0 .4.6-.1.5-1-.3-1.4-1.1-2-1.1-3.4 0-.9.8-1.4.9-1 .3.5-.9-6.7-1.2-26.6-1.3-33.7-.2-101-1.1-101.3-1.4-.1-.1 4.9-13.5 11.2-29.7 6.3-16.2 14-36 17.1-44 6.2-16.1 13.3-34.4 16.8-43.5 1.3-3.3 3.9-10.1 5.8-15 1.9-5 9.6-25 17.2-44.5 7.5-19.5 14-36.4 14.5-37.5 2-4.4 10.6-26.8 15.2-40 10.8-30.2 16-45 16.2-46.1.3-1.6 2.6-4.4 3.6-4.4.5 0 2.1 3.7 3.6 8.2zM1908.8 1294.5c-.2.2-3.2.6-6.8 1-3.6.3-8.3 1-10.5 1.5-2.2.5-6 1.1-8.5 1.5-7.7 1.1-30 7.1-40.5 11-62.2 22.8-113.6 72.2-140.5 134.9-10 23.4-19 56-22.5 81.6-.3 2.5-1 7.2-1.5 10.5s-1.2 9.1-1.5 13c-.4 3.8-.9 8.3-1 10-.4 3.6-1.3 16.5-2.1 30-1.7 27.3-.5 86 2.1 102.4 1 6.1 2.5 15.5 3 18.6 2.3 12.9 10.1 38.7 16 52.5 5.7 13.7 21.7 42.5 25.5 46 .3.3 2.5 3.2 4.9 6.5 33.3 45.2 87.8 80.4 144.2 92.9 12.8 2.8 17.7 3.6 32.9 5.3 13.8 1.5 53.1.7 63.2-1.3 1.3-.2 4.3-.7 6.8-1 2.5-.3 5.2-.7 6-.9.8-.2 2.9-.7 4.5-1 10.8-1.8 30.9-7.5 41-11.5 12.4-4.9 20.2-8.2 25.5-11 28.9-14.6 50.4-30.9 56.3-42.6 1.4-2.7 2.8-6.7 3.2-8.9.7-4.5.8-20.2.1-21.3-.2-.4-.7-3.2-1.1-6.2-1.2-9.4-2.5-15.2-3.8-16.9-5.3-6.8-9.8-5.8-29.7 6.8-14.4 9.1-36.9 20.3-54 27-5.8 2.3-11.4 4.6-12.5 5.1-9.8 4.3-43.8 14.9-50.5 15.6-21.6 2.3-49.1-.2-70.7-6.5-59.1-17.3-102.4-66.7-121.2-138.1-2.2-8.5-6.7-32-7.5-39.5-.3-2.8-.9-7.1-1.2-9.7-2.1-17.2-2.7-66.7-1-80.8 4.1-32.9 9.7-57.5 17.8-78.3 1.8-4.5 3.3-8.4 3.3-8.7.9-3.4 11.7-24.9 15.9-31.5 2-3 3.6-5.8 3.6-6 0-1 10.6-15.4 17-23 13.5-16.1 28-28.9 44.5-39.2 42.1-26.4 101-27.7 159.5-3.6 9.4 3.9 27.4 12.6 33.5 16.2 8 4.8 17.1 10.6 22 14.2 11.2 8 18.4 10.7 23.2 8.6 1.3-.6 3.3-3.1 4.5-5.6 2.1-4.2 2.3-6.2 2.6-25 .4-22.6-.2-26.9-4.9-33.8-2.7-3.9-5.1-6.1-16.4-14.8-12.3-9.6-24.5-17.6-33.4-21.7-8.8-4.2-36.1-14.1-41.8-15.2-1-.2-5.6-1.3-10.3-2.4-4.7-1.1-10.1-2.3-12-2.6-1.9-.3-4.6-.8-6-1.1-1.4-.3-4.3-.7-6.5-1-2.2-.3-5.6-.8-7.5-1.1-3.8-.7-54.6-1.5-55.2-.9zM2243.5 1302.1c-18.3.6-21.3 1.5-27.7 8.3-2.2 2.3-5.1 6.9-6.4 10.1l-2.4 5.8.3 278.6.2 278.6 2.7 5.1c2.8 5.3 7.7 10.3 12.9 13 8.7 4.5 8.6 4.5 71.9 5.1 77.4.8 206.5.9 219.6.1 20.7-1.3 25.5-7.9 24.9-34.3-.3-14-1.5-20.3-4.7-24.8-4.3-6 3.1-5.7-123.6-5.7h-115.8l-5.2-2.6-5.2-2.6v-105.3c0-102.2.1-105.3 1.9-107.6l1.9-2.4h99.4c106.2-.1 104.7 0 110.7-5.1 4.2-3.5 5.4-8.1 5.5-21.3.3-21.5-1.7-28.2-10.1-33.9l-3.8-2.7-99.7-.5-99.8-.5-2.7-2.8-2.8-2.7-.3-90.7c-.1-49.9.1-91 .6-91.5s52.7-.8 116-.8c78.1 0 116.7-.3 119.9-1.1 9.1-2 11.8-6.4 12.8-20.9 1.3-19.9.6-30-2.8-37-4.2-8.6 7.9-7.9-140.7-8.2-72.3-.2-138.7 0-147.5.3zM797.5 1310c-30.1.6-31.3.9-38.1 7.7-2 2-4.8 6.1-6.3 9.2l-2.6 5.6v559l2.7 5.1c4.2 8 11.8 13.7 21.6 16.3 5.2 1.4 86 2.4 197.7 2.5 71.3 0 89.1-.4 96.3-1.8 4.2-.9 8.4-4.9 11.1-10.5 2.5-5.3 2.6-6.4 2.5-20.6-.1-17.3-1.7-24.5-6.6-29.2l-2.9-2.8-118.7-.5-118.7-.5-3.7-2.5-3.8-2.5.3-105.8.2-105.9 2.2-1.8c2.1-1.7 7.4-1.7 99-1.5 101.5.2 105.3.1 111.1-4.1 5.5-4.1 6.5-8.1 6.5-25.4-.1-21.5-2-26.7-11.7-31.5l-5-2.5h-97.2c-68.5 0-98-.3-99.7-1.1-1.3-.6-3.2-2.6-4.1-4.5-1.4-3.1-1.6-12.1-1.6-93 0-70.6.3-89.6 1.3-89.9.6-.3 54.1-.6 118.7-.8l117.5-.2 4.2-2.4c5.6-3.2 7-7.3 8-22.1 1.1-15.9.1-27.9-2.9-33.8-4.4-8.8 6.7-8.1-129.8-8.4-66.3-.2-132.6-.1-147.5.2zM293.5 1312.1c-10.9 1.4-13.5 1.9-18.9 3.8-6.7 2.3-10.7 5.1-13.8 9.4l-2.3 3.2-.3 288.8-.2 288.9 3.2 3c6.7 6.2 17.1 8.1 36.3 6.3 2.8-.2 8.3-.7 12.4-1 15.6-1.4 22.6-4.3 24.5-10.3 1.4-4.3 1.7-26.6 1.8-121.2l.1-94.5h28.6c29.2 0 45.7-.8 62.1-3 1.9-.2 5.5-.7 8-1 2.5-.4 5.9-.8 7.5-1.1 1.7-.3 4.1-.7 5.5-.9 8.9-1.2 26.8-5.2 38.5-8.5 62.6-17.8 101.5-48.2 119.5-93.5 3-7.5 10.5-30.9 11.4-35.8.2-1.2.9-4.2 1.5-6.7 1-4.7 1.4-6.4 2.6-14 .4-2.5.9-5.4 1.1-6.5 1.8-9.5 2.5-42.8 1.1-55.5-1.5-13.7-7.4-39.2-10.3-44.8-.8-1.5-1.4-3.2-1.4-3.8 0-2.2-10.2-21.9-15.2-29.3-21.1-31.7-51.5-52.7-90.8-63-9.6-2.5-16.1-3.6-31.7-5.6-2.1-.2-10.3-.7-18.3-1-8-.3-18.3-.8-23-1-40.5-1.8-129.1-2.7-139.5-1.4zm126 61.3c2.2.3 6.5.8 9.5 1.1 3 .3 7.8 1 10.5 1.5 2.8.5 6.4 1.1 8 1.4 16.1 2.3 37.9 10 50 17.7 6.9 4.3 18 15.4 25 24.9 8.6 11.9 15.5 27.8 19.1 44.2 2.4 11.3 2.6 34.9.3 48.4-6.4 38.6-28 75.6-52.3 89.3-21 11.9-50.2 19-90.3 21.8-9.1.6-47.1.6-53.3-.1-1.9-.2-4.7-.4-6.2-.5l-2.8-.1v-124.5c0-68.5.1-124.5.3-124.5 5.9-.3 17.3-1.3 17.6-1.6.5-.5 60.2.4 64.6 1zM2086.5 2006.1c-2.2.4-5.6 1-7.5 1.4-8.6 1.5-20.4 9.4-26.2 17.5-6.8 9.4-8.1 25.4-3 36.8 5.3 11.8 15.2 17.9 45.1 27.8 32.9 10.9 41.4 17.9 40.5 33.4-.3 6.1-1.6 9.2-5.9 13.8-3.4 3.8-10 7.4-16.1 8.7-6.1 1.4-20.1 1.4-25.2 0-12.5-3.3-23.1-11.7-28.5-22.8-2.9-5.9-3.5-6.4-6.5-4.7-.9.6-3.8 1.9-6.4 3-2.9 1.1-4.8 2.6-4.8 3.5 0 2.6 5.6 12.7 10.1 18.3 5.5 6.8 15.4 13.5 24.9 16.9 6.4 2.2 9.4 2.7 20.5 2.9 20.8.5 34-4 45.1-15.2 8.4-8.4 10.7-14.5 10.7-27.4 0-12-2.7-18.6-10.6-26.3-7.6-7.4-16.1-11.5-42.2-20.1-22.7-7.5-29.6-11.4-33.4-19.1-1.9-3.8-2.2-5.8-1.9-11 .8-13 10.7-20.4 28.3-21.1 18-.7 30.6 5.9 38.5 20l3.1 5.4 6.7-3.8c3.7-2 6.8-4.5 7-5.3.5-2.6-7.6-14.3-13.4-19.6-6.3-5.6-13.3-9.3-22.1-11.5-7-1.8-20.9-2.6-26.8-1.5zM236.9 2015.3c0 4-.1 38.1-.2 76-.2 60.4 0 68.7 1.3 68.8 1.8.1 13 .1 14.7 0 .8-.1 1.1-15 1.1-58.9.1-32.3.1-59.6.1-60.6.1-2.3 1-1.6 1.6 1.2.5 2.9 6.2 19.4 9.5 27.7 1.5 3.8 4.1 10.6 5.8 15 1.7 4.4 4.7 12.3 6.7 17.5 1.9 5.2 4 10.4 4.5 11.5.5 1.1 4.6 11.7 9 23.5 4.5 11.8 8.6 21.9 9 22.4.9.9 14.6 1.5 16 .6.4-.3 3.4-7.3 6.5-15.5 3.1-8.3 8.1-21.1 11-28.5 8-20.6 13.1-33.9 17.1-44.7 2-5.4 4-10.7 4.5-11.8 1-2.4 5.5-16.1 6.2-19 .8-3.2.9 2.8.9 62.3.1 36 .4 56.5 1.1 56.9 1.4.8 14.7.9 16 .1.9-.5 1.2-20.2 1.2-75.8 0-66-.2-75.1-1.5-75.4-.8-.2-6.3-.4-12.2-.4l-10.6.1-11.3 30.6c-6.1 16.8-11.8 32.4-12.6 34.6-.7 2.2-1.8 4.9-2.3 6-.5 1.1-1.2 3.1-1.5 4.5-.4 1.4-1.3 3.8-2 5.5-2.9 6.8-16.5 45.1-16.5 46.5 0 3.5-2.4-2-10.5-24-4.7-12.9-9-24.4-9.5-25.5-.4-1.1-1.7-4.5-2.8-7.5-1.1-3-3.2-8.5-4.6-12.2-1.4-3.6-2.6-6.9-2.6-7.3 0-.4-.6-2.1-1.4-3.8-.8-1.8-3.3-8.4-5.6-14.7-2.3-6.3-6-16.3-8.2-22.1l-4-10.6h-11.9l-11.9-.1-.1 7.1zM884.5 2008.6c-1.1.4-1.3 149.9-.2 151 1 1 16.8 1 17.4 0 .4-.6.8-139.1.4-149.2-.1-1.9-.7-2-8.3-2.1-4.6 0-8.7.1-9.3.3zM655.9 2011.8c-.1 1.1-.1 13.6 0 15.4.1 1.4 1.4 1.7 9 1.7 6.2 0 9-.3 9.3-1.2.3-.6.4-4.6.3-8.7v-7.5l-9.3-.2c-5-.1-9.2.1-9.3.5zM1186.9 2013.6c-.1.2-.3 8.5-.4 18.4-.1 9.9-.3 18.4-.4 18.9 0 .5-3.8.9-8.3.9-4.6 0-8.8 0-9.3.1-.7.1-1.1 3-1 7.3l.1 7.3 9.2-.1c5.9 0 9.2.3 9.3 1 .1.6.2 17.5.4 37.6.1 25 .6 37.9 1.4 40.8 1.7 6 6.8 11.3 13.1 13.6 5.5 2 19 2.8 27 1.7l4.5-.6v-13.8l-9.7-.1c-8.1-.1-10.1-.4-12.5-2.2-5.6-4.1-5.7-5-5.8-41.4-.1-18.4.1-34.2.3-35 .3-1.3 2.6-1.5 14-1.5h13.7l.2-7.3c.2-6.2 0-7.2-1.5-7.3-.9 0-6.4-.1-12.2-.1-16.3.1-14.6 2.4-14.5-19.8l.1-19.1-8.8.2c-4.8.1-8.9.3-8.9.5zM1918.9 2016.8c0 2.1-.1 10.8-.1 19.4l-.1 15.7-8.9-.2c-5-.1-9.3.2-9.6.8-.7 1.2-.7 10.8.1 12.9.5 1.1 2.2 1.4 8.4 1.2 4.3-.2 8.3-.1 8.9.1.8.3 1.1 11.4 1.2 37.3 0 22.4.5 38.4 1.1 40.8 1.8 6.4 5.1 10.5 11.2 13.5 4.7 2.4 7.1 2.9 15 3.1 5.2.2 11.4.1 13.9-.3l4.5-.6.3-7 .2-7h-9.8c-7.8 0-10.4-.4-12.6-1.8-5.4-3.6-5.7-6-5.7-40.1V2070l.1-3.6 14 .1 14 .1v-7.3c0-6.2-.3-7.3-1.7-7.4-1-.1-7.1-.1-13.6-.1-6.9 0-12-.4-12.4-1-.3-.6-.5-9.3-.5-19.4l.1-18.4-9 .1-8.9.1-.1 3.6zM2193.9 2015.8c0 1.5-.1 10.2-.1 19.3v16.5h-9c-10.9-.1-10.3-.9-9.9 12.2l.1 2.8h9.3l9.2-.1.1 36.6c.1 42.4.5 45 6.8 51.3 2.5 2.5 5.9 4.7 8.6 5.5 5 1.5 19 2.2 26 1.2l4.5-.6.1-7 .1-7.1-9.6.1c-7.7 0-10.2-.4-12.5-1.8-5.5-3.7-5.8-5.9-6-43.5-.1-22.1.3-34.2.9-34.3.6-.1 6.9-.2 14-.3l13-.1v-14.9l-13.7.1c-11.9 0-13.8-.2-13.9-1.6 0-.9-.2-9.5-.2-19.1l-.2-17.5-8.7-.2-8.8-.1-.1 2.6zM574.8 2049.5c-.2.2-2.4.5-4.9.8-6.3.8-16.7 5.7-20.7 9.8-10.4 10.5-10.9 27.8-1.2 37.7 5.6 5.7 13.9 9.4 30.5 13.7 22.4 5.7 28.7 9.9 29.1 19.1.3 8.5-4.9 14-15.1 16.2-14.9 3.1-31.1-1.2-41.3-10.9l-3.3-3.1-5.5 5.4-5.5 5.5 4.1 4c19 18.7 61 19.4 77.3 1.3 7-7.8 9-21 4.6-30.9-4.7-10.7-12.3-15.1-37.6-21.6-21.3-5.5-26.7-9.2-26.7-17.9 0-9.3 7.2-14 21.4-14 10.4 0 16.9 2 25.6 8l6.3 4.3 4.6-5.9 4.5-5.8-4-3.5c-5.2-4.4-15.1-9.2-22-10.6-5.1-1-19.6-2.2-20.2-1.6zM745 2050.6c-19.7 3.7-34.2 18.6-38.6 39.6-1.9 9.1-1.9 22.5 0 31.7 4.3 20.6 19.6 36.5 38.4 39.9 9.5 1.7 23.4-.3 31.6-4.5 5.2-2.7 13.6-11.5 17.8-18.6 2.2-3.7 3.9-6.9 3.7-7.1-.5-.4-13.8-5.6-14.3-5.6-.2 0-1.7 2.4-3.4 5.3-3.8 6.7-8.6 11.4-14 13.8-10.5 4.6-25.5 1.8-32.3-5.8-6.5-7.4-9.7-16.1-10.6-28.3-1.1-16.1 2.7-29.7 10.3-37.5 5.6-5.7 10.5-7.8 19.2-8.3 12.3-.7 20.2 3.7 26.3 14.6 1.8 3.1 3.3 5.8 3.4 6 .1.1 3.4-1 7.4-2.5 4.4-1.8 7.1-3.4 7.1-4.3 0-2.5-5.5-11.2-10.5-16.8-9.4-10.4-24.9-14.8-41.5-11.6zM993.6 2050.2c-7.2.9-20.2 7.1-27 12.7-2.6 2.3-4.9 4.1-5.1 4.1-.1 0-.3-3.2-.4-7.2-.1-4-.5-7.5-1-7.8-.7-.4-12.6-.5-16.3-.1-.5.1-.8 24.4-.8 54.1 0 50.7.1 54 1.8 54.1 8.6.4 14.6.3 15.4-.2.7-.4 1-14.1 1-39.3V2082l6.1-4.9c9.4-7.7 18.2-11.6 27.3-12 10.9-.5 18.2 3.9 20.5 12.4.7 2.5 1.2 18.2 1.2 42.8 0 34.3.2 38.9 1.6 39.5 1.4.6 6.7.7 14.4.3 1.7-.1 1.8-2.3 1.4-43.9-.1-24-.6-44.7-.9-45.9-4.5-15.6-18.8-22.9-39.2-20.1zM1092 2050.7c-17.2 3.4-27.3 14.4-27.2 29.5.2 16.2 9.8 24.2 37.7 31.3 15.3 4 23.8 7.6 26.6 11.5 3 4.1 3.2 9.7.8 14.8-1.8 3.7-3.2 4.9-7.7 7-6.2 2.8-17.2 3.7-25.5 2.1-6.4-1.2-16.2-6-21.2-10.4l-4-3.5-5.5 5.6-5.5 5.5 4.5 4c13.6 12.1 34.6 16.7 57 12.4 11-2.1 22.3-11 25.3-19.9 3.7-10.8 1.3-23-5.7-30-5.4-5.4-12.9-8.9-26.7-12.6-18.6-4.9-22.2-6.1-26.6-8.8-9.3-5.9-7.9-18.3 2.5-22.8 4.9-2.1 18-2.5 24-.8 6.1 1.8 14.4 6.1 17.8 9.2 1.4 1.3 2.9 2 3.3 1.6.4-.5 2.6-3.2 4.9-6.1l4.2-5.1-4.3-3.6c-12.1-9.9-31.7-14.3-48.7-10.9zM1310.9 2050.5c-11.5 1.8-22.9 9-30.3 19-1.4 1.8-1.5 1.1-1.6-7.8 0-5.7-.4-9.7-1-9.8-.5 0-4.6-.2-9-.2l-8-.2v54.2c0 29.9.3 54.3.8 54.4.4 0 4.4.1 9 .2l8.2.2v-71.1l4.3-6c7.9-10.7 17.5-16.1 30.8-17.2 6.7-.6 8.3-1 8.5-2.4.3-2.2.7-12 .5-13.4-.1-1.3-3.8-1.3-12.2.1zM1523 2050.2c-9.4 1.6-19.6 6.9-27.7 14.2l-3.9 3.4.1-7.9c.1-5.8-.3-7.9-1.2-8-1.7-.1-13.9-.1-15.5 0-1 .1-1.3 11.6-1.3 54.1 0 47.3.2 54 1.5 54.1 8.8.5 16 .2 16.1-.6.1-.6.2-18.2.3-39.1l.1-38.1 6.1-5.2c3.4-2.8 9-6.5 12.5-8.3 5.6-2.8 7.4-3.3 14.4-3.3 10.7 0 13.8 1.4 16.9 7.7l2.5 5 .1 40.6c0 22.3.4 40.9.9 41.2.7.4 10 .5 15.9.1.9-.1 1.2-8.6 1.2-39.1v-38.9l6.9-5.6c8.6-7 17.6-11.1 24.7-11.4 11-.4 17.3 3.2 19.5 11.3.7 2.7 1.1 17.7 1.1 43.1 0 21.4.4 39.4.8 40 .8 1 15.1 1.2 16.7.2.8-.5.9-79.6 0-85.8-.9-6.2-4.8-13.8-9-17.4-8.7-7.5-25.4-9.1-38.8-3.9-5.2 2.1-16.2 9-20.3 12.8-2.2 2.2-3.1 2.5-3.7 1.4-.5-.7-.9-1.8-.9-2.4 0-2-7.2-9.5-10.9-11.3-6.4-3.3-16.6-4.4-25.1-2.9zM1702 2050.2c-3 .4-8.6 2.4-12.5 4.2-18.5 9.1-28.6 27.3-28.6 51.4 0 34.1 19.5 56.3 49.6 56.5 15.7.1 27.1-4.6 37.8-15.5l6.7-6.8-5.2-4.9-5.3-4.9-4.8 5.3c-3.2 3.6-7 6.5-11.4 8.7-6.1 3-7.6 3.3-15.8 3.3-7.8 0-9.7-.4-14.6-2.7-5.7-2.8-11.1-8-14-13.3-2-3.7-4.6-12.9-4.8-17.3l-.1-3.2 26.2-.1c14.5 0 31.7-.1 38.3-.2l12-.2-.2-8.5c-1-35.9-22.1-56.4-53.3-51.8zm19.4 16.6c5.3 2.4 10.3 7.5 12.9 13.2 2.3 5 4.8 15.8 3.8 16.4-.3.2-13.7.4-29.7.4-21.1 0-29.1-.4-29-1.2.2-.6.6-2.9 1.1-5.1 1-5.3 5-13.3 8.3-16.8 8.2-8.7 22-11.6 32.6-6.9zM1838.5 2049.8c-9.5 1-21.4 6.3-29.7 13.3-2.6 2.1-4.8 3.6-5.1 3.2-.2-.5-.3-3.8-.2-7.6 0-4.7-.3-6.7-1.2-6.8-.7-.1-3.5-.1-6.3-.1-2.7 0-6.3 0-7.9.1l-2.9.1v54c0 40 .3 54 1.1 54.1 6.7.6 16.7.2 16.8-.6.1-.6.2-18.2.3-39.2l.1-38.1 3-2.7c9.7-8.6 19.7-13.4 29.4-14.2 12.4-1 19.8 3.6 21.8 13.7.5 2.5.9 21.5.8 42.3 0 32.9.2 38 1.5 38.6 1.2.5 10.4.6 15.5.2 1.2-.1 1.3-80.3.1-87.1-3-16.4-17.3-25.3-37.1-23.2zM2304.3 2050.2c-20.5 3.1-35.6 17.8-40.7 39.6-1.8 8-1.9 24.3 0 32.4 7.1 31.4 37.7 47.9 67.9 36.7 19.2-7.1 31.1-26.3 31.6-51.1.4-19-4.4-32.8-15-43.6-11.3-11.4-27.3-16.6-43.8-14zm22.3 18.1c12 6.1 18.2 19.2 18.2 38.1 0 9.9-1 15.1-4.4 22.6-2.9 6.4-8.2 12.3-13.9 15.3-3.3 1.8-5.7 2.2-13.5 2.2-10.3 0-15.3-1.7-21.3-7.3-13-12.2-15.4-44.7-4.6-60.5 6.9-9.9 14.7-13.8 26.9-13.3 5.7.2 8.7.9 12.6 2.9zM2448.7 2049.6c-.1.1-2.2.4-4.7.7-12.2 1.6-24.9 9.2-31.2 18.7-1.6 2.4-1.7 2.2-1.7-7.3-.1-8.5-.3-9.7-1.8-9.8-10.8-.4-14.6-.3-15.5.2-1.2.7-1.6 106.5-.4 107.6.3.3 4.4.6 9 .7l8.5.1-.1-35.1c0-31.5.2-35.4 1.7-38.5 2.3-4.4 12.1-14 16.5-16.1 7.3-3.4 8.7-3.8 17.5-4.5 3.9-.3 7.3-1 7.6-1.5.3-.5.7-3.9.8-7.5.1-3.7.4-6.9.6-7.3.3-.5-6.2-.9-6.8-.4zM2513.5 2050.6c-7.9 1.8-7.3 1.6-13 4.4-9.7 4.8-20.4 17.6-23.7 28.5-3 9.8-4 24.2-2.3 35.1.3 2.4.6 4.6.6 4.9 0 .2.6 2.3 1.4 4.5 6.9 19.5 19.4 30.5 38.3 33.8 10.6 1.9 25.1-.5 34.6-5.6 4.8-2.6 17.6-14.4 17.6-16.3 0-.5-1.6-2.3-3.7-4.1-2-1.8-4.1-3.8-4.7-4.4-.8-.9-2.6.3-6.9 4.7-3.3 3.3-7.7 6.8-9.9 7.9-8.6 4.1-20.1 4.9-28.8 1.9-3.6-1.2-10.9-6.3-12.3-8.5-.4-.7-1.3-1.9-2-2.6-2.9-3-5.3-10.1-7.1-21.1-.5-3.2-5.7-2.9 43.2-2.8 28.3 0 33.2-.2 33.3-1.4.5-8.5-.8-20.3-3.1-27.9-2.4-7.7-8-17-12.8-21.4-9.8-8.9-24.9-12.6-38.7-9.6zm18.5 15.4c4.8 1.3 11.5 7.2 14.2 12.4 2.3 4.5 4.8 12.9 4.8 16.2v2.2h-58.9l.3-2.7c1.1-8 4.3-15 9.5-20.4 7.8-8.3 18.1-10.9 30.1-7.7zM420.2 2052c-1.8.5-1.9 2.1-1.9 43 0 38.5.2 43 1.8 47.8 2.4 7.1 5.3 10.9 10.8 14.3 5.8 3.7 10.4 5 18.9 5.1 12.5.1 25.8-4.8 36.6-13.7 2.4-1.9 4.5-3.5 4.7-3.5.2 0 .3 3.4.2 7.5-.1 4.1.1 7.5.5 7.6.4 0 4.4.2 9 .2l8.2.2.1-4v-103c-.1-1.8-.8-2-7.9-1.9-4.4 0-8.4.4-9 .8-.7.4-1 12.5-1 38.1 0 20.6-.3 38.3-.6 39.2-.9 2.6-12.1 10.7-19.1 13.9-8.6 4-19.6 4.5-26 1.4-3.8-1.8-5.2-3.3-6.9-6.9-2-4.4-2.1-6.1-2.2-44.9 0-22.1-.4-40.5-.7-40.9-.8-.7-12.9-1-15.5-.3zM657.9 2051.8c-1.4.3-1.6 5.7-1.6 53.8 0 47.9.2 53.6 1.6 54.2 1.9.9 14.9.8 15.8-.1.9-1 1-106.8 0-107.4-.9-.5-13.5-1-15.8-.5zM1347.8 2052.1c-.7.5-1.1 14.5-1 42.2 0 36 .2 42.3 1.7 47.3 4.2 14.5 14.5 20.9 32.9 20.5 12.4-.2 22.5-4.7 37.3-16.3.9-.7 1.2.8 1.1 5.9 0 3.7 0 7.2.1 7.8.1.8 9.1 1.1 16.9.6.9-.1 1.2-11.6 1.2-54.1v-54l-2.2-.1c-7.5-.3-14.6-.2-15.4.3-.5.4-.9 16.3-.8 39.2l.1 38.7-3.4 3c-10.4 9.1-21.2 13.9-31.3 14-10.9 0-16.8-3.7-19.1-12.4-.7-2.7-1.1-18-1.1-43.4.1-38.1 0-39.3-1.9-39.4-7.8-.4-14.3-.3-15.1.2z"/></svg>